<svg xmlns="http://www.w3.org/2000/svg" width="66" height="66" viewBox="0 0 66 66">
  <g id="camera_swipe" transform="translate(-337 -27)">
    <circle id="Ellipse_16" data-name="Ellipse 16" cx="33" cy="33" r="33" transform="translate(337 27)" fill="#fff"/>
    <g id="Group_110" data-name="Group 110" transform="translate(322.867 43)">
      <g id="Group_109" data-name="Group 109" transform="translate(32.133 0)">
        <path id="Path_901" data-name="Path 901" d="M308.636,2.122l.435-.435a.988.988,0,1,0-1.4-1.4l-2.118,2.118a.988.988,0,0,0,0,1.4l2.118,2.118a.988.988,0,0,0,1.4-1.4l-.424-.424a6.431,6.431,0,0,1,6.148,6.417.988.988,0,1,0,1.977,0A8.41,8.41,0,0,0,308.636,2.122Z" transform="translate(-287.266 0)" fill="#24236e"/>
        <path id="Path_902" data-name="Path 902" d="M158.293,144.6H145.588a.989.989,0,0,0-.989.989v12.706a.989.989,0,0,0,.989.989h12.706a.989.989,0,0,0,.989-.989V145.588A.989.989,0,0,0,158.293,144.6Z" transform="translate(-137.187 -135.07)" fill="#24236e"/>
        <path id="Path_903" data-name="Path 903" d="M41.232,342.985a.988.988,0,0,0-1.4,1.4l.424.424a6.431,6.431,0,0,1-6.148-6.417.989.989,0,0,0-1.977,0,8.41,8.41,0,0,0,8.136,8.4l-.435.435a.988.988,0,1,0,1.4,1.4L43.35,346.5a.988.988,0,0,0,0-1.4Z" transform="translate(-32.133 -315.166)" fill="#24236e"/>
      </g>
    </g>
  </g>
</svg>
