<svg xmlns="http://www.w3.org/2000/svg" width="20.069" height="27.164" viewBox="0 0 20.069 27.164">
  <g id="location" transform="translate(-48.08)">
    <g id="Group_27" data-name="Group 27" transform="translate(48.08)">
      <g id="Group_26" data-name="Group 26" transform="translate(0)">
        <g id="Group_25" data-name="Group 25">
          <path id="Path_30" data-name="Path 30" d="M58.114,0A10.046,10.046,0,0,0,48.08,10.034a11.577,11.577,0,0,0,.851,3.863,16.181,16.181,0,0,0,1.16,2.169l6.88,10.424a1.309,1.309,0,0,0,2.287,0l6.881-10.425A16.114,16.114,0,0,0,67.3,13.9a11.574,11.574,0,0,0,.851-3.863A10.046,10.046,0,0,0,58.114,0Zm8.1,13.44a14.827,14.827,0,0,1-1.057,1.977L58.272,25.842c-.136.206-.179.206-.315,0L51.077,15.417a14.834,14.834,0,0,1-1.057-1.978,10.509,10.509,0,0,1-.759-3.4,8.854,8.854,0,1,1,17.708,0A10.517,10.517,0,0,1,66.21,13.44Z" transform="translate(-48.08)" fill="#fff"/>
          <path id="Path_31" data-name="Path 31" d="M117.392,64.008A5.312,5.312,0,1,0,122.7,69.32,5.318,5.318,0,0,0,117.392,64.008Zm0,9.444a4.132,4.132,0,1,1,4.132-4.132A4.137,4.137,0,0,1,117.392,73.452Z" transform="translate(-107.358 -59.285)" fill="#fff"/>
        </g>
      </g>
    </g>
  </g>
</svg>
