<svg xmlns="http://www.w3.org/2000/svg" width="30.216" height="40.198" viewBox="0 0 30.216 40.198">
  <path id="leo" d="M722.078,1322.219l-.43-1.364a8.147,8.147,0,0,0-.625-1.306,9.793,9.793,0,0,0-4.118-3.907,12.66,12.66,0,0,0-2.523-1.048,8.792,8.792,0,0,0-1.32-.352,8.554,8.554,0,0,0-1.375-.192,9.2,9.2,0,0,0-5.545,1.2,8.726,8.726,0,0,0-3.61,4.317,12.911,12.911,0,0,0-.875,5.257,19.117,19.117,0,0,0,.881,5.043,27.844,27.844,0,0,0,1.8,4.183,7.9,7.9,0,0,0-4.082-1.139,8.011,8.011,0,1,0,5.415,2.144c-.1-.327-.209-.649-.312-.969a32.417,32.417,0,0,1-1.285-4.615,14.539,14.539,0,0,1,.762-8.859,6.532,6.532,0,0,1,2.711-2.88,6.228,6.228,0,0,1,3.846-.613,7.3,7.3,0,0,1,1.024.189,5.777,5.777,0,0,1,1.022.29,9.8,9.8,0,0,1,1.947.842,6.567,6.567,0,0,1,2.81,2.717,5.773,5.773,0,0,1,.439.882l.321.958a11.4,11.4,0,0,1,.282,2.1,19.188,19.188,0,0,1-.374,4.466,54.558,54.558,0,0,1-2.752,9.051l-.889,2.267a20.51,20.51,0,0,0-.808,2.416,16.445,16.445,0,0,0-.676,5.112,6.785,6.785,0,0,0,2.052,4.814,4.564,4.564,0,0,0,2.419.976,6.017,6.017,0,0,0,2.449-.4,5.75,5.75,0,0,1-2.367-.091,3.888,3.888,0,0,1-1.879-1.146,5.721,5.721,0,0,1-1.078-4.154,14.951,14.951,0,0,1,1.1-4.448c.548-1.444,1.275-2.83,2-4.342a47.311,47.311,0,0,0,3.438-9.432,20.554,20.554,0,0,0,.533-5.228A14.571,14.571,0,0,0,722.078,1322.219Zm-17.3,20.076a4.745,4.745,0,1,1,.2-1.382,4.745,4.745,0,0,1-.2,1.382Z" transform="translate(-692.207 -1314.003)" fill="#fff" fill-rule="evenodd"/>
</svg>
