<svg xmlns="http://www.w3.org/2000/svg" width="36.132" height="40.198" viewBox="0 0 36.132 40.198">
  <path id="aries" d="M337.144,962.685a5.661,5.661,0,0,1,1.5-2.834,5.025,5.025,0,0,1,2.733-1.282,9.356,9.356,0,0,1,1.639-.105l.737.066c.239.032.46.121.691.169a5.062,5.062,0,0,1,2.33,1.74,17.487,17.487,0,0,1,2.85,6.186,54.822,54.822,0,0,1,1.514,7.123c.416,2.425.664,4.884.966,7.351.54,4.937.921,9.927,1.571,14.937.65-5.011,1.031-10,1.571-14.937.3-2.467.551-4.926.966-7.351a54.89,54.89,0,0,1,1.514-7.123,17.49,17.49,0,0,1,2.851-6.186,5.063,5.063,0,0,1,2.33-1.74c.231-.047.452-.137.691-.169l.737-.066a9.383,9.383,0,0,1,1.64.105,5.026,5.026,0,0,1,2.733,1.282,5.659,5.659,0,0,1,1.5,2.834,18.346,18.346,0,0,1-.061,7.279,15.29,15.29,0,0,0,1.577-7.521,7.35,7.35,0,0,0-1.48-3.949,6.949,6.949,0,0,0-3.735-2.3,11.809,11.809,0,0,0-2.091-.345c-.362-.024-.761.007-1.141.018a10.756,10.756,0,0,0-1.15.207,7.9,7.9,0,0,0-3.8,2.435,19.505,19.505,0,0,0-3.621,7.252,48,48,0,0,0-1.032,4.754,47.791,47.791,0,0,0-1.032-4.754,19.51,19.51,0,0,0-3.621-7.252,7.9,7.9,0,0,0-3.8-2.435,10.726,10.726,0,0,0-1.15-.207c-.38-.011-.779-.042-1.141-.018a11.813,11.813,0,0,0-2.092.345,6.947,6.947,0,0,0-3.734,2.3,7.35,7.35,0,0,0-1.481,3.949,15.293,15.293,0,0,0,1.577,7.521A18.4,18.4,0,0,1,337.144,962.685Z" transform="translate(-335.607 -955.837)" fill="#fff" fill-rule="evenodd"/>
</svg>
