<svg xmlns="http://www.w3.org/2000/svg" width="20.069" height="20.069" viewBox="0 0 20.069 20.069">
  <g id="about" transform="translate(0 0)">
    <g id="Group_6" data-name="Group 6" transform="translate(0 0)">
      <path id="Path_14" data-name="Path 14" d="M10.034,20.069a10.034,10.034,0,0,1-7.1-17.13A10.034,10.034,0,0,1,17.13,17.13,9.968,9.968,0,0,1,10.034,20.069Zm0-18.814a8.78,8.78,0,1,0,8.78,8.78A8.79,8.79,0,0,0,10.034,1.254Z" transform="translate(0 0)" fill="#fff"/>
      <path id="Path_15" data-name="Path 15" d="M179.136,106.661a.627.627,0,0,1-.627-.627,5.888,5.888,0,0,1,1.736-4.191,3.685,3.685,0,0,0,1.086-2.623,1.969,1.969,0,0,0-1.967-1.967h-.143a1.969,1.969,0,0,0-1.967,1.967v.228a.627.627,0,1,1-1.254,0v-.228A3.225,3.225,0,0,1,179.221,96h.143a3.225,3.225,0,0,1,3.221,3.221,4.931,4.931,0,0,1-1.454,3.51,4.641,4.641,0,0,0-1.368,3.3A.627.627,0,0,1,179.136,106.661Z" transform="translate(-169.101 -92.237)" fill="#fff"/>
      <path id="Path_16" data-name="Path 16" d="M240.642,401.254a.627.627,0,0,1,0-1.254h0a.627.627,0,1,1,0,1.254Z" transform="translate(-230.607 -384.321)" fill="#fff"/>
    </g>
  </g>
</svg>
