<svg xmlns="http://www.w3.org/2000/svg" width="36.017" height="40.198" viewBox="0 0 36.017 40.198">
  <path id="scorpio" d="M717.683,1739.776a.3.3,0,0,0-.475.182v2.838c-.1-.01-.193-.021-.29-.027l-1.18-.089c-.374-.048-.722-.093-1.064-.172a4.232,4.232,0,0,1-1.75-.981,6.558,6.558,0,0,1-1.651-3.733,10.426,10.426,0,0,1-.095-2.143l.087-2.353c.134-3.138.2-6.275.265-9.416.093-3.137.067-6.275.1-9.413l-.005.134a9.737,9.737,0,0,0-.27-3.127,6.416,6.416,0,0,0-1.654-3.007,5.215,5.215,0,0,0-3.318-1.438,7.314,7.314,0,0,0-1.693.062l-.86.21c-.283.1-.563.231-.84.354a5.075,5.075,0,0,0-1.864,1.679,5.376,5.376,0,0,0-.688-.867,5.231,5.231,0,0,0-3.312-1.476,6.7,6.7,0,0,0-1.7.055l-.865.213c-.285.1-.567.234-.846.358a5.339,5.339,0,0,0-1.943,1.751c-.026-.031-.046-.069-.074-.1a3.845,3.845,0,0,0-2.246-1.318,3.1,3.1,0,0,0-2.489.561c.6.75,1.06,1.187,1.407,1.651l.946,1.139c.31.361.654.729,1.073,1.166.063.065.131.134.2.2-.028.213-.053.427-.069.64a6.913,6.913,0,0,0-.009.791l.018.657.034,1.314.069,2.625c.106,3.506.249,7.008.474,10.51s.482,7.008.9,10.517c.416-3.509.684-7.018.9-10.531s.368-7.025.474-10.538l.069-2.635.034-1.318.017-.661c0-.2.013-.33.026-.523.12-1.445.709-2.759,1.626-3.155l.37-.148c.141-.028.28-.059.419-.093a4.929,4.929,0,0,1,.926-.021,2.134,2.134,0,0,1,1.419.561c.745.654,1.113,2.315,1.064,3.678l-.006.131.17,6.313.288,6.313c.241,4.208.534,8.415,1.028,12.626.089-.76.165-1.521.241-2.281.066.76.117,1.521.2,2.281.366-3.509.578-7.018.8-10.531l.267-5.267.194-5.271.156-5.143c.141-1.469.774-2.787,1.708-3.186a3.162,3.162,0,0,1,1.737-.261,2.127,2.127,0,0,1,1.413.6,5.339,5.339,0,0,1,1,3.671l-.006.127v.007c.039,3.138.012,6.275.1,9.413.066,3.141.131,6.279.265,9.416l.087,2.353a10.891,10.891,0,0,0,.356,2.535,8,8,0,0,0,2.635,4.462,5.564,5.564,0,0,0,2.477,1,11.539,11.539,0,0,0,1.283.038l1.18-.089c.1-.007.193-.021.29-.028v3.347a.3.3,0,0,0,.475.186l5.2-3.482a.209.209,0,0,0,0-.365Z" transform="translate(-686.963 -1706.962)" fill="#fff" fill-rule="evenodd"/>
</svg>
