<svg xmlns="http://www.w3.org/2000/svg" width="60.5" height="50.42" viewBox="0 0 60.5 50.42">
  <g id="reading" transform="translate(0 -39.985)">
    <g id="Group_32" data-name="Group 32" transform="translate(0 39.985)">
      <g id="Group_31" data-name="Group 31">
        <path id="Path_33" data-name="Path 33" d="M59.491,46.039H55.458V41a1.008,1.008,0,0,0-1-1.012c-.029,0-.059,0-.088,0l-2.631.222a61.173,61.173,0,0,0-18.543,4.521L30.25,45.955l-2.938-1.219A61.187,61.187,0,0,0,8.766,40.214l-2.632-.225a1.008,1.008,0,0,0-1.089.92c0,.029,0,.059,0,.088v5.042H1.008A1.008,1.008,0,0,0,0,47.047V89.4a1.008,1.008,0,0,0,1.008,1.008H59.491A1.008,1.008,0,0,0,60.5,89.4V47.047A1.008,1.008,0,0,0,59.491,46.039ZM2.017,88.391V48.056H5.042V83.347a1.008,1.008,0,0,0,.923,1.008l2.713.232q1.109.093,2.218.229c.247.029.492.069.739.1.489.066.978.131,1.465.209.29.046.58.1.869.152.442.078.883.155,1.323.242.3.06.6.127.907.193.425.091.849.184,1.271.284.3.073.61.15.915.228.416.107.832.216,1.246.331.3.085.6.173.907.262q.617.182,1.231.379.45.143.9.294c.412.138.822.283,1.231.432.29.1.582.211.87.321.125.047.249.1.373.147H2.017Zm27.225-.506-1.859-.776A61.155,61.155,0,0,0,8.848,82.571l-1.79-.149V42.094l1.539.129A59.171,59.171,0,0,1,26.536,46.6l2.705,1.123Zm2.017,0V47.72L33.967,46.6A59.162,59.162,0,0,1,51.9,42.223l1.539-.129V82.418l-1.657.135a61.566,61.566,0,0,0-18.553,4.511Zm27.225.5H35.372c.138-.053.275-.11.413-.162.3-.116.6-.226.915-.336q.593-.215,1.191-.416l.935-.3c.4-.127.8-.248,1.2-.367.315-.093.63-.185.946-.271.4-.113.807-.219,1.22-.323.313-.08.626-.159.941-.234.419-.1.842-.192,1.264-.281.3-.066.6-.133.914-.194.444-.088.889-.165,1.334-.243l.865-.151c.5-.079,1-.146,1.494-.213.239-.031.478-.07.718-.1q1.109-.134,2.229-.229l2.582-.21a1.008,1.008,0,0,0,.926-1.008V48.056h3.025Z" transform="translate(0 -39.985)" fill="#fff"/>
      </g>
    </g>
  </g>
</svg>
