<svg xmlns="http://www.w3.org/2000/svg" width="40.599" height="29.464" viewBox="0 0 40.599 29.464">
  <path id="cancer" d="M345.738,1356.821a7.967,7.967,0,0,0,3.462-15.141c.619-.04,1.237-.072,1.851-.108a87.36,87.36,0,0,1,8.986.132l2.247.152,2.247.228c1.507.1,3,.368,4.514.508,1.509.192,3.021.421,4.555.593,1.526.212,3.052.46,4.644.56-1.366-.785-2.79-1.449-4.226-2.1-1.469-.536-2.937-1.129-4.453-1.553a43.044,43.044,0,0,0-4.611-1.065l-2.344-.364-2.37-.2a37.267,37.267,0,0,0-9.5.585,27.512,27.512,0,0,0-5.853,1.878,7.975,7.975,0,0,0,.852,15.9Zm0-12.7a4.724,4.724,0,1,1-4.713,4.72A4.724,4.724,0,0,1,345.738,1344.125Zm24.414,5.265a7.971,7.971,0,0,0-3.464,15.146c-.618.036-1.236.068-1.85.1a87.325,87.325,0,0,1-8.986-.132l-2.247-.152-2.247-.228c-1.507-.1-3-.368-4.514-.509-1.509-.188-3.02-.416-4.555-.592-1.526-.212-3.052-.46-4.644-.561,1.366.789,2.791,1.449,4.226,2.1,1.47.536,2.937,1.133,4.453,1.557a43.988,43.988,0,0,0,4.61,1.061l2.345.368,2.37.2a37.273,37.273,0,0,0,9.5-.585,27.072,27.072,0,0,0,5.851-1.878,7.975,7.975,0,0,0-.85-15.9Zm0,12.7a4.724,4.724,0,1,1,4.713-4.72A4.724,4.724,0,0,1,370.153,1362.086Z" transform="translate(-337.646 -1338.374)" fill="#fff" fill-rule="evenodd"/>
</svg>
