<svg xmlns="http://www.w3.org/2000/svg" width="36.253" height="40.198" viewBox="0 0 36.253 40.198">
  <path id="virgo" d="M1041.051,1352.619a4.831,4.831,0,0,1-2.031,1.074,6.046,6.046,0,0,1-1.155.123c-.2,0-.391.007-.584,0l-.581-.081a5.03,5.03,0,0,1-2.07-.746,4.081,4.081,0,0,1-1.3-1.475,15.7,15.7,0,0,0,1.26-1.049,23.752,23.752,0,0,0,5.981-9.054,22.146,22.146,0,0,0,1.338-5.344,13.958,13.958,0,0,0,.056-2.851,7.262,7.262,0,0,0-.82-2.978,7.365,7.365,0,0,0-.482-.722,5.924,5.924,0,0,0-.658-.637,4.752,4.752,0,0,0-.774-.444l-.672-.246a7.437,7.437,0,0,0-2.876-.429,5.037,5.037,0,0,0-2.707,1.017c-.018.014-.031.032-.049.046l.039-5.974-.007.134a10.58,10.58,0,0,0-.313-3.295,6.726,6.726,0,0,0-1.718-3.151,5.405,5.405,0,0,0-3.439-1.5,7.6,7.6,0,0,0-1.767.063c-.3.07-.6.141-.891.222-.3.106-.584.246-.87.38a5.466,5.466,0,0,0-2.042,1.908,5.761,5.761,0,0,0-.82-1.081,5.428,5.428,0,0,0-3.443-1.542,7.168,7.168,0,0,0-1.781.06l-.9.222c-.3.1-.591.243-.88.373a5.573,5.573,0,0,0-2.123,1.975,2.944,2.944,0,0,0-.172-.239,4.063,4.063,0,0,0-2.334-1.4,3.3,3.3,0,0,0-2.6.51c.644.746,1.151,1.19,1.538,1.672.408.443.722.824,1.06,1.229l1.134,1.288.239.26c-.032.225-.056.454-.07.679a6.64,6.64,0,0,0-.011.834l.018.7.032,1.4.067,2.806c.106,3.742.246,7.484.468,11.226s.472,7.487.88,11.233c.408-3.745.672-7.495.88-11.247s.363-7.5.468-11.254l.067-2.812.035-1.408.014-.7c0-.218.014-.363.028-.57.13-1.567.76-3.017,1.792-3.471l.412-.169c.155-.028.31-.063.461-.1a5.145,5.145,0,0,1,1.014-.021,2.367,2.367,0,0,1,1.584.634c.831.75,1.214,2.542,1.162,4.027l-.007.127.165,6.741.285,6.745c.236,4.5.524,8.99,1.01,13.486.1-.894.18-1.792.26-2.686.07.894.123,1.792.2,2.686.341-3.745.546-7.494.757-11.247.176-3.749.341-7.5.444-11.25l.165-5.506c.148-1.591.817-3.07,1.887-3.524l.426-.162a4.543,4.543,0,0,0,.472-.106,4.76,4.76,0,0,1,1.025-.018,2.407,2.407,0,0,1,1.588.679,5.666,5.666,0,0,1,1.074,4.027l0,.049,0,.085.039,6.012c.018,2.006.011,4.009.063,6.016l.116,6.012c.035,2,.12,4.01.179,6.012l0-.106a11.42,11.42,0,0,0,.257,2.865,9.226,9.226,0,0,0,.338,1.158,13.153,13.153,0,0,1-6.224,3.186,9.93,9.93,0,0,0,5.315-.584,14.2,14.2,0,0,0,1.785-.877,5.856,5.856,0,0,0,2.024,1.88,6.108,6.108,0,0,0,2.8.722l.7.011c.232-.014.465-.049.7-.077a6.885,6.885,0,0,0,1.369-.313,5.381,5.381,0,0,0,2.288-1.6,7.311,7.311,0,0,0,1.478-5A7.356,7.356,0,0,1,1041.051,1352.619Zm-8.448-3.548a10.2,10.2,0,0,1-.042-2.066l0-.067v-.039c.06-2,.144-4.01.179-6.012l.116-6.012c.046-1.711.046-3.422.056-5.129a4.865,4.865,0,0,1,.493-.239,4.126,4.126,0,0,1,2.235-.239,5.98,5.98,0,0,1,2.119.775l.5.3a2.215,2.215,0,0,1,.317.246c.077.1.148.208.225.306.053.141.127.25.176.394a5.922,5.922,0,0,1,.271,2.056,13.905,13.905,0,0,1-.24,2.313,25.235,25.235,0,0,1-1.327,4.657,30.789,30.789,0,0,1-4.83,8.476C1032.775,1348.881,1032.687,1348.976,1032.6,1349.071Z" transform="translate(-1006.86 -1314.956)" fill="#fff" fill-rule="evenodd"/>
</svg>
