<svg xmlns="http://www.w3.org/2000/svg" width="58.504" height="40.198" viewBox="0 0 58.504 40.198">
  <path id="libra" d="M342.2,1736.07a1.193,1.193,0,0,0,.928-2.01l-.063-.066a11.843,11.843,0,0,1-2.12-12.7,13.065,13.065,0,0,1,1.775-2.811,12.711,12.711,0,0,1,2.474-2.2,12.279,12.279,0,0,1,2.993-1.388,12.821,12.821,0,0,1,3.262-.46,12.447,12.447,0,0,1,3.263.46,11.521,11.521,0,0,1,7.247,6.4A11.847,11.847,0,0,1,359.84,1734l-.065.07a1.189,1.189,0,0,0,.925,2c3.332-.162,6.664-.28,10-.495,3.332-.18,6.664-.429,10-.718q-5-.44-10-.718c-2.479-.162-4.959-.267-7.438-.376a14.216,14.216,0,0,0,1.715-13.726,14.546,14.546,0,0,0-27.743,8.428,14.348,14.348,0,0,0,2.4,5.289c-2.48.114-4.96.219-7.439.381q-5,.269-10.008.722,5,.438,10.008.723C335.531,1735.79,338.867,1735.908,342.2,1736.07Zm9.238,11.414-7.312.1c-2.437.1-4.875.136-7.312.3-4.875.263-9.751.652-14.626,1.392,4.875.74,9.751,1.125,14.626,1.388,2.437.167,4.875.2,7.312.3l7.312.1c4.875.009,9.751-.136,14.624-.394s9.751-.648,14.626-1.392c-4.876-.744-9.751-1.134-14.626-1.4S356.315,1747.471,351.44,1747.485Z" transform="translate(-322.187 -1710.86)" fill="#fff" fill-rule="evenodd"/>
</svg>
