<svg xmlns="http://www.w3.org/2000/svg" width="33.664" height="40.198" viewBox="0 0 33.664 40.198">
  <path id="taurus" d="M700.9,954.239a15.511,15.511,0,0,1,1.533,2.254c.456.779.811,1.565,1.285,2.491a18.787,18.787,0,0,0,3.583,5.03,11.087,11.087,0,0,0,1.356,1.11,13.217,13.217,0,1,0,9.9,0,10.965,10.965,0,0,0,1.356-1.112,18.786,18.786,0,0,0,3.581-5.03c.474-.926.832-1.711,1.285-2.491a15.612,15.612,0,0,1,1.533-2.254,17.934,17.934,0,0,1,4.126-3.839,13.074,13.074,0,0,0-5.294,2.679,16.339,16.339,0,0,0-2.166,2.15,29.125,29.125,0,0,0-1.735,2.408,21.988,21.988,0,0,1-3.48,4.019,6.751,6.751,0,0,1-1.937,1.214,2.963,2.963,0,0,1-.89.207l-1.331-.005-1.331,0a2.866,2.866,0,0,1-.888-.207,6.686,6.686,0,0,1-1.935-1.214,22.02,22.02,0,0,1-3.478-4.019c-.518-.716-1.056-1.637-1.735-2.409a16.5,16.5,0,0,0-2.168-2.15,13.061,13.061,0,0,0-5.3-2.675,17.966,17.966,0,0,1,4.125,3.841Zm12.709,13.282a9.82,9.82,0,1,1-9.842,9.818,9.82,9.82,0,0,1,9.842-9.818Z" transform="translate(-696.771 -950.398)" fill="#fff" fill-rule="evenodd"/>
</svg>
