<svg xmlns="http://www.w3.org/2000/svg" width="55" height="54" viewBox="0 0 55 54">
  <g id="apple" transform="translate(-257 -764)">
    <ellipse id="Ellipse_3" data-name="Ellipse 3" cx="27.5" cy="27" rx="27.5" ry="27" transform="translate(257 764)" fill="#8877f8"/>
    <g id="Icon_ionic-logo-apple" data-name="Icon ionic-logo-apple" transform="translate(275.519 778.977)">
      <path id="Path_3" data-name="Path 3" d="M20.141,10.821c-1.894,0-2.694.93-4.013.93-1.353,0-2.384-.924-4.024-.924A5.468,5.468,0,0,0,7.7,13.555C6.169,15.978,6.428,20.543,8.9,24.432c.885,1.392,2.068,2.953,3.618,2.97h.028c1.347,0,1.747-.907,3.6-.919h.028c1.826,0,2.192.913,3.534.913h.028c1.55-.017,2.8-1.747,3.68-3.134a15.416,15.416,0,0,0,1.364-2.626,4.822,4.822,0,0,1-.614-8.617,5.3,5.3,0,0,0-4.03-2.2Z" transform="translate(-6.748 -5.754)" fill="#fff"/>
      <path id="Path_4" data-name="Path 4" d="M21.869,4.5a4.929,4.929,0,0,0-3.213,1.781,4.483,4.483,0,0,0-1.048,3.427h.09a4.184,4.184,0,0,0,3.145-1.7A4.8,4.8,0,0,0,21.869,4.5Z" transform="translate(-8.893 -4.5)" fill="#fff"/>
    </g>
  </g>
</svg>
