<svg xmlns="http://www.w3.org/2000/svg" width="20.069" height="23.593" viewBox="0 0 20.069 23.593">
  <g id="Profile" transform="translate(-36.073)">
    <g id="Group_2" data-name="Group 2" transform="translate(36.073)">
      <g id="Group_1" data-name="Group 1" transform="translate(0)">
        <path id="Path_12" data-name="Path 12" d="M142.1,12.713h.156a4.508,4.508,0,0,0,3.444-1.49c1.881-2.12,1.568-5.755,1.534-6.1a4.985,4.985,0,0,0-2.37-4.431A5.432,5.432,0,0,0,142.232,0h-.083a5.441,5.441,0,0,0-2.629.669,4.988,4.988,0,0,0-2.4,4.451c-.034.347-.347,3.982,1.534,6.1A4.49,4.49,0,0,0,142.1,12.713Zm-3.669-7.47c0-.015,0-.029,0-.039.161-3.5,2.648-3.879,3.713-3.879h.059c1.319.029,3.562.567,3.713,3.879a.1.1,0,0,0,0,.039c0,.034.347,3.357-1.207,5.106a3.2,3.2,0,0,1-2.516,1.046h-.049a3.192,3.192,0,0,1-2.511-1.046C138.089,8.609,138.421,5.272,138.426,5.242Z" transform="translate(-132.147)" fill="#fff"/>
        <path id="Path_13" data-name="Path 13" d="M56.14,265.32v-.015c0-.039,0-.078,0-.122-.029-.967-.093-3.229-2.213-3.953l-.049-.015a14.1,14.1,0,0,1-4.055-1.847.659.659,0,1,0-.757,1.08,15.217,15.217,0,0,0,4.461,2.037c1.138.406,1.265,1.622,1.3,2.736a.982.982,0,0,0,0,.122,8.869,8.869,0,0,1-.1,1.51,17.981,17.981,0,0,1-8.614,2,18.084,18.084,0,0,1-8.618-2.008,8.4,8.4,0,0,1-.1-1.51c0-.039,0-.078,0-.122.034-1.114.161-2.331,1.3-2.736a15.358,15.358,0,0,0,4.461-2.037.659.659,0,0,0-.757-1.08,13.943,13.943,0,0,1-4.055,1.847l-.049.015c-2.12.728-2.184,2.99-2.213,3.953a.98.98,0,0,1,0,.122v.015a7.493,7.493,0,0,0,.249,2.213.627.627,0,0,0,.254.308,18.48,18.48,0,0,0,9.537,2.335,18.536,18.536,0,0,0,9.537-2.335.654.654,0,0,0,.254-.308A7.86,7.86,0,0,0,56.14,265.32Z" transform="translate(-36.073 -246.578)" fill="#fff"/>
      </g>
    </g>
  </g>
</svg>
