<svg id="red_phone" xmlns="http://www.w3.org/2000/svg" width="86.808" height="86.808" viewBox="0 0 86.808 86.808">
  <g id="Ellipse_13" data-name="Ellipse 13" transform="translate(9.404 11.404)" fill="#fff" stroke="#707070" stroke-width="1">
    <ellipse cx="34" cy="34.5" rx="34" ry="34.5" stroke="none"/>
    <ellipse cx="34" cy="34.5" rx="33.5" ry="34" fill="none"/>
  </g>
  <g id="Group_105" data-name="Group 105" transform="translate(0 0)">
    <g id="Group_104" data-name="Group 104" transform="translate(0 0)">
      <g id="Group_103" data-name="Group 103">
        <path id="Path_894" data-name="Path 894" d="M74.09,12.708A43.4,43.4,0,1,0,86.808,43.394,43.4,43.4,0,0,0,74.09,12.708ZM65.733,60.461l-.006.006v-.014l-2.2,2.185a11.574,11.574,0,0,1-10.923,3.125,38.459,38.459,0,0,1-11.169-5.006,51.605,51.605,0,0,1-8.811-7.1,52,52,0,0,1-6.583-7.986,40.506,40.506,0,0,1-4.948-10.012,11.574,11.574,0,0,1,2.894-11.82l2.575-2.575a1.837,1.837,0,0,1,2.6-.006l.006.006L37.3,29.389a1.837,1.837,0,0,1,.006,2.6l-.006.006-4.774,4.774a3.892,3.892,0,0,0-.405,5.064,55.837,55.837,0,0,0,5.715,6.67,55.5,55.5,0,0,0,7.523,6.323,3.921,3.921,0,0,0,5.006-.434L54.978,49.7a1.837,1.837,0,0,1,2.6-.006l.006.006,8.146,8.16A1.837,1.837,0,0,1,65.733,60.461Z" transform="translate(0 0)" fill="#fc2424"/>
      </g>
    </g>
  </g>
</svg>
