<svg xmlns="http://www.w3.org/2000/svg" width="50.336" height="50.452" viewBox="0 0 50.336 50.452">
  <g id="support" transform="translate(-0.572)">
    <g id="Group_43" data-name="Group 43" transform="translate(0.573 8.137)">
      <g id="Group_42" data-name="Group 42" transform="translate(0)">
        <path id="Path_39" data-name="Path 39" d="M41.465,115.8l-1.884-5.652a5.7,5.7,0,0,0-4.385-3.8l-5.438-.99v-.422a8.189,8.189,0,0,0,2.426-2.154h1.643a2.444,2.444,0,0,0,2.441-2.441V90.579a10.579,10.579,0,0,0-21.157,0v5.7a3.26,3.26,0,0,0,2.6,3.187,8.153,8.153,0,0,0,3.915,5.477v.422l-5.439.99a5.7,5.7,0,0,0-4.384,3.8l-.325.977L8.7,108.358a.815.815,0,0,1,0-1.151l3.214-3.213L5.881,97.96l-3.633,3.633a5.7,5.7,0,0,0,0,8.055l11,11a5.693,5.693,0,0,0,8.03.024l3.964-3.632L24,115.8ZM34.64,100.344a.815.815,0,0,1-.814.814h-.684a8.083,8.083,0,0,0,.531-1.7,3.223,3.223,0,0,0,.968-.385Zm-.814-2.667v-2.8a1.613,1.613,0,0,1,0,2.8Zm-16.275,0a1.613,1.613,0,0,1,0-2.8Zm0-5.47v.929a3.228,3.228,0,0,0-.814.337V90.579a8.951,8.951,0,0,1,17.9,0v2.894a3.2,3.2,0,0,0-.814-.337v-.929h-.814a8.953,8.953,0,0,1-6.371-2.639l-.953-.953-.953.953a8.953,8.953,0,0,1-6.371,2.639Zm1.627,5.7V93.8a10.55,10.55,0,0,0,6.51-2.892A10.546,10.546,0,0,0,32.2,93.8v4.1a6.461,6.461,0,0,1-.88,3.255H25.689v1.627h4.292a6.5,6.5,0,0,1-10.8-4.882Zm8.951,7.762v.038l-2.441,2.441L23.248,105.7v-.038a8.131,8.131,0,0,0,4.882,0Zm-14.791,5a4.07,4.07,0,0,1,3.132-2.717l5.688-1.033,3.529,3.529,3.528-3.528L34.9,107.95a4.069,4.069,0,0,1,3.132,2.717l1.171,3.51H22.376l-3.17-3.17-3.522,3.186a.831.831,0,0,1-1.151,0l-1.777-1.777ZM5.88,100.261l3.732,3.732-.884.884L5,101.145ZM20.149,119.5a4.07,4.07,0,0,1-5.754,0l-11-11a4.07,4.07,0,0,1,0-5.754l.448-.448,3.732,3.732-.029.029a2.445,2.445,0,0,0,0,3.453l5.835,5.835a2.428,2.428,0,0,0,1.727.715,2.4,2.4,0,0,0,1.7-.687l.061-.055,3.749,3.749Zm1.668-1.53-3.741-3.741,1.075-.972,3.734,3.734Z" transform="translate(-0.58 -80)" fill="#fff"/>
      </g>
    </g>
    <g id="Group_45" data-name="Group 45" transform="translate(34.633)">
      <g id="Group_44" data-name="Group 44">
        <path id="Path_40" data-name="Path 40" d="M349.262,0H337.869a2.444,2.444,0,0,0-2.441,2.441v6.51a2.444,2.444,0,0,0,2.441,2.441h2.174L339.2,16.3l7.853-4.908h2.208A2.444,2.444,0,0,0,351.7,8.951V2.441A2.444,2.444,0,0,0,349.262,0Zm.814,8.951a.815.815,0,0,1-.814.814h-2.675l-5.168,3.23.554-3.23h-4.1a.815.815,0,0,1-.814-.814V2.441a.815.815,0,0,1,.814-.814h11.392a.815.815,0,0,1,.814.814Z" transform="translate(-335.428)" fill="#fff"/>
      </g>
    </g>
    <g id="Group_47" data-name="Group 47" transform="translate(37.888 3.255)">
      <g id="Group_46" data-name="Group 46">
        <rect id="Rectangle_38" data-name="Rectangle 38" width="9.765" height="1.627" fill="#fff"/>
      </g>
    </g>
    <g id="Group_49" data-name="Group 49" transform="translate(37.888 6.51)">
      <g id="Group_48" data-name="Group 48">
        <rect id="Rectangle_39" data-name="Rectangle 39" width="6.51" height="1.627" fill="#fff"/>
      </g>
    </g>
    <g id="Group_51" data-name="Group 51" transform="translate(46.025 6.51)">
      <g id="Group_50" data-name="Group 50">
        <rect id="Rectangle_40" data-name="Rectangle 40" width="1.627" height="1.627" fill="#fff"/>
      </g>
    </g>
    <g id="Group_53" data-name="Group 53" transform="translate(0.572 2.441)">
      <g id="Group_52" data-name="Group 52">
        <path id="Path_41" data-name="Path 41" d="M25.682,24A22.77,22.77,0,0,0,3.51,41.613L1.968,39.043l-1.4.837,2.86,4.766L8.2,41.786l-.837-1.4L5.156,41.714A21.163,21.163,0,0,1,31.951,26.571l.482-1.554A22.77,22.77,0,0,0,25.682,24Z" transform="translate(-0.572 -24)" fill="#fff"/>
      </g>
    </g>
    <g id="Group_55" data-name="Group 55" transform="translate(42.12 15.158)">
      <g id="Group_54" data-name="Group 54">
        <path id="Path_42" data-name="Path 42" d="M417.428,151.876l-4.766-2.86-2.859,4.767,1.4.837,1.424-2.374a21.175,21.175,0,0,1-3.586,20.159l1.264,1.025a22.788,22.788,0,0,0,3.9-21.594l2.392,1.435Z" transform="translate(-409.036 -149.016)" fill="#fff"/>
      </g>
    </g>
  </g>
</svg>
