<svg xmlns="http://www.w3.org/2000/svg" width="20.069" height="20.069" viewBox="0 0 20.069 20.069">
  <g id="my_heroscope" transform="translate(0 0)">
    <g id="Group_29" data-name="Group 29" transform="translate(0 0)">
      <path id="Path_32" data-name="Path 32" d="M10.034,20.069A10.108,10.108,0,0,1,8,19.863a.294.294,0,1,1,.118-.576,9.517,9.517,0,0,0,1.911.193A9.444,9.444,0,0,0,16.548,3.192a.294.294,0,0,1,.405-.426,10.034,10.034,0,0,1-6.919,17.3Zm-3.093-.5a.293.293,0,0,1-.093-.015A10.037,10.037,0,0,1,2.939,2.939,10.036,10.036,0,0,1,15.816,1.832a.294.294,0,0,1-.339.48A9.448,9.448,0,1,0,7.035,18.994a.294.294,0,0,1-.093.573Zm2.988-.761a1.861,1.861,0,0,1-.966-.252.294.294,0,0,1,.31-.5,1.386,1.386,0,0,0,1.313,0,.212.212,0,0,0,.116-.237.141.141,0,0,0-.155-.1.294.294,0,0,1,0-.588.726.726,0,0,1,.721.527.8.8,0,0,1-.372.9,1.861,1.861,0,0,1-.966.252Zm3.377-.79a.294.294,0,0,1-.254-.441,1.818,1.818,0,0,1,.143-.21l-.54-.936a1.819,1.819,0,0,1-.253.018h0a.294.294,0,1,1,0-.588,1.37,1.37,0,0,0,.314-.039l.036-.009a2.1,2.1,0,0,0,.927-.535.3.3,0,0,1,.026-.026A1.37,1.37,0,0,0,13.9,15a.294.294,0,0,1,.509.294,1.818,1.818,0,0,1-.143.21l.54.936a1.817,1.817,0,0,1,.253-.018h0a.294.294,0,0,1,0,.588h0a1.938,1.938,0,0,0-1.494.863A.294.294,0,0,1,13.307,18.016Zm-.069-1.752.391.678a2.757,2.757,0,0,1,.589-.34l-.392-.678A2.757,2.757,0,0,1,13.238,16.264ZM6.266,17.91a1.161,1.161,0,0,1-.581-.157,1.146,1.146,0,0,1-.523-.64.992.992,0,0,1,.08-.809,1.829,1.829,0,0,1,.736-.63,1.141,1.141,0,0,0,.376-.275c.046-.08.029-.115.023-.126a.26.26,0,0,0-.194-.11.294.294,0,1,1,.077-.583.836.836,0,0,1,.644.433.7.7,0,0,1-.041.68,1.475,1.475,0,0,1-.593.492,1.326,1.326,0,0,0-.518.414.412.412,0,0,0-.029.335.559.559,0,0,0,.257.31.488.488,0,0,0,.673-.125,2.737,2.737,0,0,0,.216-.6A.294.294,0,0,1,7.3,16.33l.206.119A.294.294,0,0,1,7.341,17a2.4,2.4,0,0,1-.179.415,1.021,1.021,0,0,1-.9.5Zm3.255-.193a.726.726,0,0,1-.721-.527.8.8,0,0,1,.372-.9,1.979,1.979,0,0,1,1.933,0,.294.294,0,0,1-.31.5,1.385,1.385,0,0,0-1.313,0,.212.212,0,0,0-.116.237.141.141,0,0,0,.155.1.294.294,0,1,1,0,.588Zm-5.955-2.3a.294.294,0,0,1-.194-.073,2.785,2.785,0,0,1-.5-.574,1.406,1.406,0,0,1,.017-1.287l-.631-.039A.294.294,0,1,1,2.3,12.86l.867.054.387-.778a.294.294,0,0,1,.526.262l-.276.556.619.038a.294.294,0,1,1-.036.587l-.865-.054c-.208.443-.274.714-.136.954a1.654,1.654,0,0,0,.228.282l1.233-.712a.294.294,0,1,1,.294.509l-1.424.822a.293.293,0,0,1-.147.039Zm6.467-.055A5.337,5.337,0,0,1,4.7,10.034a.294.294,0,1,1,.588,0,4.743,4.743,0,1,0,4.743-4.743A4.692,4.692,0,0,0,7.076,6.327a4.764,4.764,0,0,0-1.654,2.6A.294.294,0,0,1,4.85,8.79a5.331,5.331,0,1,1,5.185,6.575Zm7.046-.051a.293.293,0,0,1-.147-.039,1.086,1.086,0,0,1-.515-.7,1.088,1.088,0,1,1,.735-1.322l.009.035.034-.01a1.081,1.081,0,0,1,.826.109.294.294,0,1,1-.294.509.5.5,0,0,0-.5.867.294.294,0,0,1-.147.549ZM16.1,13.038a.5.5,0,1,0,.249.067.5.5,0,0,0-.249-.067Zm-6.069,1.152A.294.294,0,0,1,9.74,13.9V12.637a2.6,2.6,0,0,1-.753-.2l-.629,1.09a.294.294,0,1,1-.509-.294l.63-1.091a2.64,2.64,0,0,1-.551-.551l-1.091.63a.294.294,0,1,1-.294-.509l1.09-.629a2.6,2.6,0,0,1-.2-.753H6.173a.294.294,0,1,1,0-.588H7.432a2.6,2.6,0,0,1,.2-.753l-1.09-.629a.294.294,0,1,1,.294-.509l1.091.63a2.642,2.642,0,0,1,.551-.551l-.63-1.091a.294.294,0,1,1,.509-.294l.629,1.09a2.6,2.6,0,0,1,.753-.2V6.173a.294.294,0,1,1,.588,0V7.432a2.62,2.62,0,0,1,.753.2l.629-1.089a.294.294,0,0,1,.509.294l-.766,1.327-.007.011a.294.294,0,0,1-.4.1l0,0a2.03,2.03,0,1,0,.757.758l-.007-.011a.294.294,0,0,1,.109-.4l1.33-.768a.294.294,0,1,1,.294.509l-1.089.629a2.62,2.62,0,0,1,.2.753H13.9a.294.294,0,0,1,0,.588H12.637a2.6,2.6,0,0,1-.2.753l1.09.629a.294.294,0,1,1-.294.509l-1.091-.63a2.641,2.641,0,0,1-.551.551l.63,1.091a.294.294,0,1,1-.509.294l-.629-1.09a2.6,2.6,0,0,1-.753.2V13.9a.294.294,0,0,1-.294.294Zm7.7-2.685a.294.294,0,1,1,0-.588.294.294,0,0,0,0-.588H16.643a.294.294,0,1,1,0-.588h1.094a.294.294,0,1,0,0-.588.294.294,0,0,1,0-.588.881.881,0,0,1,.657,1.47.882.882,0,0,1-.657,1.47Zm-14.269,0a.294.294,0,0,1-.294-.294V8.778a.294.294,0,0,1,.588,0V11.21A.294.294,0,0,1,3.469,11.5Zm-1.176,0A.294.294,0,0,1,2,11.21v-.344A.882.882,0,0,1,2,9.2V8.858a.294.294,0,0,1,.588,0v.588a.294.294,0,0,1-.294.294.294.294,0,1,0,0,.588.294.294,0,0,1,.294.294v.588A.294.294,0,0,1,2.293,11.5ZM3.815,8.1a.293.293,0,0,1-.147-.039L2.244,7.234A.294.294,0,0,1,2.1,6.921,2.785,2.785,0,0,1,2.351,6.2a.716.716,0,0,1,.738-.4,1.91,1.91,0,0,1,.694.282l.465.268a.141.141,0,0,0,.108.022.121.121,0,0,0,.069-.059.26.26,0,0,0-.067-.311L3.44,4.934a.294.294,0,1,1,.447-.382L4.8,5.624a.834.834,0,0,1,.129.987.706.706,0,0,1-.416.33.723.723,0,0,1-.563-.079l-.465-.268a1.524,1.524,0,0,0-.467-.207c-.047-.005-.091-.011-.161.11a1.656,1.656,0,0,0-.13.338l1.233.712a.294.294,0,0,1-.147.549Zm12.177-.13a.294.294,0,0,1-.28-.383,1.815,1.815,0,0,1,.6-.864l-.267-.463A1.815,1.815,0,0,1,15,6.343a.294.294,0,0,1,.126-.574,1.226,1.226,0,0,0,.625-.029l-.157-.272a.294.294,0,0,1,.509-.294l.157.272a1.227,1.227,0,0,0,.337-.527.294.294,0,1,1,.56.178,1.815,1.815,0,0,1-.6.864l.267.463a1.815,1.815,0,0,1,1.048-.088.294.294,0,0,1-.126.574,1.226,1.226,0,0,0-.625.029l.157.272a.294.294,0,0,1-.509.294l-.157-.272a1.226,1.226,0,0,0-.337.527.294.294,0,0,1-.28.205ZM5.968,5.319a.294.294,0,0,1-.284-.37l.23-.858-.025-.007a.294.294,0,1,1,.152-.568l.025.007.179-.667L6.1,2.94a.294.294,0,1,1-.294-.509l.76-.439a.3.3,0,0,1,.4.108l.439.76a.294.294,0,1,1-.509.294l-.084-.146-.179.667.025.007a.294.294,0,1,1-.152.568l-.025-.007-.23.858a.294.294,0,0,1-.284.218ZM13.846,4.9a.294.294,0,0,1-.263-.164l-.226-.458-.51.033a.294.294,0,0,1-.282-.163l-.313-.633a.294.294,0,0,1,.527-.261L13,3.715l.51-.033a.294.294,0,0,1,.282.163l.226.458.51-.033a.294.294,0,0,1,.038.587l-.705.045h-.019Zm-3.129-.787a.781.781,0,0,1-.477-.161.294.294,0,0,1,.356-.468.2.2,0,0,0,.121.041.2.2,0,0,0,.2-.2,3.075,3.075,0,0,0-.245-.919h-.456l-.506,1a.294.294,0,0,1-.525,0L8.6,2.247a.294.294,0,1,1,.525-.265l.326.645.326-.645a.294.294,0,0,1,.262-.161h.689l.248-.346a.294.294,0,1,1,.478.342l-.244.341a3.78,3.78,0,0,1,.3,1.171A.788.788,0,0,1,10.716,4.116Zm3.717-.231a.294.294,0,0,1-.263-.164l-.226-.458-.51.033a.293.293,0,0,1-.282-.163L12.839,2.5a.294.294,0,0,1,.527-.261l.226.458.51-.033a.294.294,0,0,1,.282.163l.226.458.51-.033a.294.294,0,0,1,.038.587l-.705.045Z" transform="translate(0 0)" fill="#fff"/>
    </g>
  </g>
</svg>
