<svg xmlns="http://www.w3.org/2000/svg" width="38.19" height="36.625" viewBox="0 0 38.19 36.625">
  <path id="star_unfilled_gold" d="M17.572,1.2l-4.411,8.943L3.292,11.584a2.163,2.163,0,0,0-1.2,3.688l7.14,6.957L7.548,32.058a2.16,2.16,0,0,0,3.134,2.276l8.829-4.64,8.829,4.64a2.162,2.162,0,0,0,3.134-2.276L29.785,22.23l7.14-6.957a2.163,2.163,0,0,0-1.2-3.688L25.86,10.146,21.449,1.2A2.163,2.163,0,0,0,17.572,1.2Z" transform="translate(-0.415 1.001)" fill="none" stroke="#ffdb2a" stroke-width="2"/>
</svg>
