<svg xmlns="http://www.w3.org/2000/svg" width="17.556" height="17.556" viewBox="0 0 17.556 17.556">
  <g id="Group_142" data-name="Group 142" transform="translate(-2 -2)">
    <g id="Group_141" data-name="Group 141" transform="translate(2 2)">
      <g id="Group_137" data-name="Group 137" transform="translate(9.656 9.656)">
        <path id="Path_908" data-name="Path 908" d="M40.94,42.9H36.96A1.961,1.961,0,0,1,35,40.94V35.585A.587.587,0,0,1,35.585,35H40.94a1.961,1.961,0,0,1,1.96,1.96V40.94A1.961,1.961,0,0,1,40.94,42.9ZM36.17,36.17V40.94a.787.787,0,0,0,.79.79H40.94a.787.787,0,0,0,.79-.79V36.96a.787.787,0,0,0-.79-.79Z" transform="translate(-35 -35)" fill="#fff"/>
      </g>
      <g id="Group_138" data-name="Group 138" transform="translate(0 9.656)">
        <path id="Path_909" data-name="Path 909" d="M7.94,42.9H3.96A1.961,1.961,0,0,1,2,40.94V36.96A1.961,1.961,0,0,1,3.96,35H9.315a.587.587,0,0,1,.585.585V40.94A1.961,1.961,0,0,1,7.94,42.9ZM3.96,36.17a.787.787,0,0,0-.79.79V40.94a.787.787,0,0,0,.79.79H7.94a.787.787,0,0,0,.79-.79V36.17Z" transform="translate(-2 -35)" fill="#fff"/>
      </g>
      <g id="Group_139" data-name="Group 139" transform="translate(9.656 0)">
        <path id="Path_910" data-name="Path 910" d="M40.94,9.9H35.585A.587.587,0,0,1,35,9.315V3.96A1.961,1.961,0,0,1,36.96,2H40.94A1.961,1.961,0,0,1,42.9,3.96V7.94A1.961,1.961,0,0,1,40.94,9.9ZM36.17,8.73H40.94a.787.787,0,0,0,.79-.79V3.96a.787.787,0,0,0-.79-.79H36.96a.787.787,0,0,0-.79.79Z" transform="translate(-35 -2)" fill="#fff"/>
      </g>
      <g id="Group_140" data-name="Group 140" transform="translate(0 0)">
        <path id="Path_911" data-name="Path 911" d="M9.315,9.9H3.96A1.961,1.961,0,0,1,2,7.94V3.96A1.961,1.961,0,0,1,3.96,2H7.94A1.961,1.961,0,0,1,9.9,3.96V9.315a.587.587,0,0,1-.585.585ZM3.96,3.17a.787.787,0,0,0-.79.79V7.94a.787.787,0,0,0,.79.79H8.73V3.96a.787.787,0,0,0-.79-.79Z" transform="translate(-2 -2)" fill="#fff"/>
      </g>
    </g>
  </g>
</svg>
