<svg xmlns="http://www.w3.org/2000/svg" width="18.394" height="20.284" viewBox="0 0 18.394 20.284">
  <path id="email" d="M20.051,9.362a10.461,10.461,0,0,1-.337,2.269,6.566,6.566,0,0,1-.882,1.993,4.655,4.655,0,0,1-1.5,1.416,4.221,4.221,0,0,1-2.184.539,3.166,3.166,0,0,1-1.579-.387A2.7,2.7,0,0,1,12.506,14.1a3.383,3.383,0,0,1-2.862,1.437,2.91,2.91,0,0,1-2.5-1.344,4.4,4.4,0,0,1-.621-1.557A6.713,6.713,0,0,1,6.443,10.6a9.433,9.433,0,0,1,.619-2.487A6.76,6.76,0,0,1,8.205,6.212,4.837,4.837,0,0,1,9.777,5a4.386,4.386,0,0,1,1.911-.425,5.944,5.944,0,0,1,1.143.1,4.68,4.68,0,0,1,.887.266,4.8,4.8,0,0,1,.735.388c.224.144.45.294.674.446l-.555,6.388a2.123,2.123,0,0,0,.016.748,1.046,1.046,0,0,0,.228.461.821.821,0,0,0,.37.241,1.374,1.374,0,0,0,1.3-.256,2.772,2.772,0,0,0,.7-.887,5.715,5.715,0,0,0,.469-1.333,9.149,9.149,0,0,0,.205-1.66,10.612,10.612,0,0,0-.261-3.1,6.168,6.168,0,0,0-1.148-2.4,5.333,5.333,0,0,0-2.058-1.546,7.471,7.471,0,0,0-3-.549,6.622,6.622,0,0,0-2.966.646A6.805,6.805,0,0,0,6.173,4.312,8.6,8.6,0,0,0,4.7,7.008a12.15,12.15,0,0,0-.621,3.359,11.17,11.17,0,0,0,.317,3.427,6.19,6.19,0,0,0,1.252,2.456,5.226,5.226,0,0,0,2.122,1.475,8.139,8.139,0,0,0,2.928.489,10.029,10.029,0,0,0,1.922-.207c.317-.063.617-.139.9-.223a6.8,6.8,0,0,0,.778-.279l.4,1.808a4.46,4.46,0,0,1-.871.431,8.382,8.382,0,0,1-1.029.3,10.043,10.043,0,0,1-2.15.241,11.274,11.274,0,0,1-3.919-.631,7.213,7.213,0,0,1-2.857-1.878,7.889,7.889,0,0,1-1.715-3.1,13.23,13.23,0,0,1-.479-4.306A13.132,13.132,0,0,1,2.5,6.235,10.227,10.227,0,0,1,4.49,2.952,9.045,9.045,0,0,1,7.518.786,9.481,9.481,0,0,1,11.44,0a9.9,9.9,0,0,1,3.8.681,7.391,7.391,0,0,1,2.743,1.914A7.855,7.855,0,0,1,19.61,5.552,11.307,11.307,0,0,1,20.051,9.362ZM9.166,10.6a4.312,4.312,0,0,0,.223,2.138,1.146,1.146,0,0,0,1.1.722,1.218,1.218,0,0,0,.378-.07,1.347,1.347,0,0,0,.435-.261,2.32,2.32,0,0,0,.441-.532,4.086,4.086,0,0,0,.406-.9l.433-4.964a2.59,2.59,0,0,0-.674-.089,2.332,2.332,0,0,0-1.122.257,2.221,2.221,0,0,0-.795.755A4.436,4.436,0,0,0,9.466,8.9a10.537,10.537,0,0,0-.3,1.7Z" transform="translate(-1.67)" fill="#fff"/>
</svg>
