<svg xmlns="http://www.w3.org/2000/svg" width="37.774" height="40.198" viewBox="0 0 37.774 40.198">
  <path id="capricon" d="M345.981,2106.124a15.986,15.986,0,0,1,.1,2.08c0,.711-.1,1.35-.127,2.127l-.092,2.228c-.049,1.484-.068,2.972-.072,4.459,0,2.975.084,5.954.3,8.933a73.031,73.031,0,0,0,1.073,8.922c.136-.7.253-1.408.361-2.112.036.7.068,1.408.108,2.112.091-1.61.168-3.217.245-4.824.15-1.358.267-2.715.361-4.073.217-2.964.3-5.929.3-8.893,0-1.174-.029-2.351-.058-3.528l.117-4.235a.538.538,0,0,0-.005-.09l-.013-.1a9.01,9.01,0,0,1,.762-5.229,5.687,5.687,0,0,1,1.625-1.859,8.767,8.767,0,0,1,1.108-.592,6.7,6.7,0,0,1,1.24-.386,12.142,12.142,0,0,1,2.7-.253,10.994,10.994,0,0,1,1.264.155,4.811,4.811,0,0,1,1.143.4,6.142,6.142,0,0,1,2.981,3.824,13.751,13.751,0,0,1,.553,2.679,22.116,22.116,0,0,1,.078,2.842l-.013,3.04c0,1.008-.029,2,.053,3.156a15.507,15.507,0,0,0,6.466,11.118c.057.043.12.076.178.115-.049.235-.1.466-.149.7-.2.99-.418,1.953-.674,2.9a8.567,8.567,0,0,1-1.1,2.593,8.7,8.7,0,0,1-4.637,3.21,18.877,18.877,0,0,1-5.912.859,17.761,17.761,0,0,0,6.078-.263,9.24,9.24,0,0,0,5.37-3.152,9.723,9.723,0,0,0,1.472-2.842c.347-.982.614-1.971.879-2.943.023-.087.047-.17.07-.256a14.788,14.788,0,0,0,1.439.592,11.861,11.861,0,0,0,1.656.4c.275.04.576.094.831.119s.4.021.737.061a5.14,5.14,0,0,0,3.77-.892,4.861,4.861,0,0,0,1.822-3.441,5.838,5.838,0,0,0-.8-3.6,4.933,4.933,0,0,0-3.024-2.275,5.735,5.735,0,0,0-1.865-.119,5.522,5.522,0,0,0-4.29,3.047,14.459,14.459,0,0,0-.991,2.517,12.953,12.953,0,0,1-4.59-8.691c-.011-.466-.056-.863-.052-1.379l-.007-1.5-.013-3a25.288,25.288,0,0,0-.119-3.192,16.348,16.348,0,0,0-.7-3.221,10.658,10.658,0,0,0-1.595-3.055,7.409,7.409,0,0,0-2.823-2.231,7.3,7.3,0,0,0-1.713-.556,12.854,12.854,0,0,0-1.739-.17,14.489,14.489,0,0,0-3.3.4,9.139,9.139,0,0,0-3.149,1.441,7.9,7.9,0,0,0-2.207,2.744,9.364,9.364,0,0,0-.4,1.062c-.085-.155-.153-.314-.249-.462a4.7,4.7,0,0,0-1.8-1.694,3.679,3.679,0,0,0-2.315-.321,3.745,3.745,0,0,1,2.919,2.625,7.823,7.823,0,0,1,.434,1.982Zm26.026,17.65a3.867,3.867,0,0,1,1.738-1.643,3.769,3.769,0,0,1,1.108-.285,3.647,3.647,0,0,1,1.136.119,2.722,2.722,0,0,1,1.617,1.351,3.743,3.743,0,0,1,.411,2.213,2.472,2.472,0,0,1-.933,1.744,2.7,2.7,0,0,1-1.993.35l-.769-.083c-.247-.033-.441-.08-.664-.116a9.228,9.228,0,0,1-1.274-.339,13.546,13.546,0,0,1-1.521-.708A13.124,13.124,0,0,1,372.007,2123.773Z" transform="translate(-342.628 -2098.35)" fill="#fff" fill-rule="evenodd"/>
</svg>
