<svg id="work" xmlns="http://www.w3.org/2000/svg" width="56.104" height="50.493" viewBox="0 0 56.104 50.493">
  <path id="Path_38" data-name="Path 38" d="M53.3,8.416H41.143V4.675A4.681,4.681,0,0,0,36.467,0H19.636a4.681,4.681,0,0,0-4.675,4.675v3.74H2.805A2.805,2.805,0,0,0,0,11.221V32.035a2.817,2.817,0,0,0,1.87,2.64V47.688a2.805,2.805,0,0,0,2.805,2.805H51.428a2.805,2.805,0,0,0,2.805-2.805V34.676a2.818,2.818,0,0,0,1.87-2.641V11.221A2.805,2.805,0,0,0,53.3,8.416ZM16.831,4.675A2.805,2.805,0,0,1,19.636,1.87H36.467a2.805,2.805,0,0,1,2.805,2.805v3.74H37.4V4.675a.935.935,0,0,0-.935-.935H19.636a.935.935,0,0,0-.935.935v3.74h-1.87Zm18.7,3.74H20.571V5.61H35.532ZM52.363,47.688a.935.935,0,0,1-.935.935H4.675a.935.935,0,0,1-.935-.935V35l20.571,2.837v2.374a2.805,2.805,0,0,0,2.805,2.805h1.87a2.805,2.805,0,0,0,2.805-2.805V37.833L52.363,35Zm-22.441-7.48a.935.935,0,0,1-.935.935h-1.87a.935.935,0,0,1-.935-.935V34.6a.935.935,0,0,1,.935-.935h1.87a.935.935,0,0,1,.935.935Zm24.312-8.173a.935.935,0,0,1-.8.927L53.17,33,31.792,35.945V34.6a2.805,2.805,0,0,0-2.805-2.805h-1.87A2.805,2.805,0,0,0,24.312,34.6v1.348L2.675,32.962a.935.935,0,0,1-.8-.927V11.221a.935.935,0,0,1,.935-.935H53.3a.935.935,0,0,1,.935.935Zm0,0" fill="#fff"/>
</svg>
