<svg id="calendar" xmlns="http://www.w3.org/2000/svg" width="20.069" height="20.069" viewBox="0 0 20.069 20.069">
  <path id="Path_23" data-name="Path 23" d="M17.769,61.064H2.3a2.3,2.3,0,0,1-2.3-2.3v-13.8a2.3,2.3,0,0,1,2.3-2.3H17.769a2.3,2.3,0,0,1,2.3,2.3v13.8A2.3,2.3,0,0,1,17.769,61.064ZM2.3,43.922a1.047,1.047,0,0,0-1.045,1.045v13.8A1.047,1.047,0,0,0,2.3,59.81H17.769a1.047,1.047,0,0,0,1.045-1.045v-13.8a1.047,1.047,0,0,0-1.045-1.045Zm0,0" transform="translate(0 -40.995)" fill="#fff"/>
  <path id="Path_24" data-name="Path 24" d="M19.441,171.922H.627a.627.627,0,1,1,0-1.254H19.441a.627.627,0,1,1,0,1.254Zm0,0" transform="translate(0 -163.978)" fill="#fff"/>
  <path id="Path_25" data-name="Path 25" d="M107.3,5.017a.627.627,0,0,1-.627-.627V.627a.627.627,0,1,1,1.254,0V4.39A.627.627,0,0,1,107.3,5.017Zm0,0" transform="translate(-102.487)" fill="#fff"/>
  <path id="Path_26" data-name="Path 26" d="M373.959,5.017a.627.627,0,0,1-.627-.627V.627a.627.627,0,1,1,1.254,0V4.39A.627.627,0,0,1,373.959,5.017Zm0,0" transform="translate(-358.699)" fill="#fff"/>
</svg>
