<svg xmlns="http://www.w3.org/2000/svg" width="32.506" height="40.198" viewBox="0 0 32.506 40.198">
  <path id="pisces" d="M1026.117,2122.6a27.879,27.879,0,0,1-1.944,9.257,53.581,53.581,0,0,1-5.323,9.69,26.964,26.964,0,0,0,7.524-8.664,23.127,23.127,0,0,0,2.843-10.065c1.887.107,3.773.18,5.656.184,1.734,0,3.463-.061,5.193-.149a23.15,23.15,0,0,0,2.844,10.03,26.962,26.962,0,0,0,7.524,8.664,53.117,53.117,0,0,1-5.323-9.69,27.8,27.8,0,0,1-1.944-9.2,56.051,56.051,0,0,0,7.96-1.205,54.937,54.937,0,0,0-7.926-1.2,31.484,31.484,0,0,1,2.051-9.127,49.306,49.306,0,0,1,5.182-9.77,26.075,26.075,0,0,0-7.382,8.768,25.112,25.112,0,0,0-2.943,9.927c-1.745-.092-3.49-.153-5.235-.149-1.9,0-3.8.073-5.7.184a25.127,25.127,0,0,0-2.943-9.962,26.075,26.075,0,0,0-7.382-8.768,49.3,49.3,0,0,1,5.182,9.77,31.558,31.558,0,0,1,2.051,9.177,54.057,54.057,0,0,0-7.462,1.152A54.021,54.021,0,0,0,1026.117,2122.6Z" transform="translate(-1018.62 -2101.35)" fill="#fff" fill-rule="evenodd"/>
</svg>
