<svg xmlns="http://www.w3.org/2000/svg" width="13.524" height="13.54" viewBox="0 0 13.524 13.54">
  <path id="call" d="M3.293,5.407a.923.923,0,0,1,.235-.5L5.407,3.027q.219-.188.329.063L7.255,5.94a.41.41,0,0,1-.078.485l-.689.689a.779.779,0,0,0-.219.485A2.39,2.39,0,0,0,6.754,8.8a10.3,10.3,0,0,0,.955,1.253l.485.5c.146.146.334.326.564.54a9.452,9.452,0,0,0,1.135.845,2.54,2.54,0,0,0,1.245.524.682.682,0,0,0,.5-.2l.815-.814a.344.344,0,0,1,.469-.063L15.663,13a.229.229,0,0,1,.125.164.2.2,0,0,1-.063.18l-1.879,1.879a.92.92,0,0,1-.5.234,3.788,3.788,0,0,1-1.731-.211,7.829,7.829,0,0,1-1.784-.853q-.822-.532-1.527-1.08t-1.127-.939l-.407-.392q-.156-.156-.415-.431t-.9-1.08A15.724,15.724,0,0,1,4.342,8.9a9.179,9.179,0,0,1-.814-1.746A3.714,3.714,0,0,1,3.293,5.407Z" transform="translate(-2.767 -2.446)" fill="none" stroke="#fff" stroke-width="1"/>
</svg>
