<svg xmlns="http://www.w3.org/2000/svg" width="40.198" height="40.198" viewBox="0 0 40.198 40.198">
  <path id="sagittarius" d="M1036.71,1722.161c2.507-2.772,4.955-5.6,7.28-8.553.011,1.164.015,2.325.051,3.489.062,1.819.124,3.638.262,5.457.1,1.819.269,3.638.448,5.457.215,1.819.418,3.635.764,5.454.346-1.819.549-3.635.764-5.454.178-1.819.346-3.638.451-5.457.135-1.819.2-3.638.258-5.457s.076-3.635.08-5.454v-.007a1.547,1.547,0,0,0-1.553-1.546c-3.638,0-7.276.1-10.911.345-1.819.1-3.638.269-5.457.448-1.819.211-3.638.415-5.457.76,1.819.342,3.638.546,5.457.757,1.819.178,3.638.346,5.457.451,2.983.2,5.963.284,8.946.317-2.95,2.325-5.785,4.77-8.553,7.276q-5.07,4.6-9.9,9.423l-1.419,1.452c-1-.942-2.034-1.859-3.125-2.714a28.6,28.6,0,0,0-4.861-3.14,28.546,28.546,0,0,0,3.14,4.864c.862,1.1,1.786,2.139,2.74,3.151l-1.244,1.277c-1.55,1.67-3.14,3.3-4.65,5.013-3.056,3.384-6.039,6.843-8.8,10.518,3.675-2.765,7.131-5.748,10.514-8.808,1.71-1.51,3.343-3.1,5.013-4.646l1.277-1.244c1.011.953,2.052,1.877,3.151,2.74a27.968,27.968,0,0,0,4.864,3.136,27.956,27.956,0,0,0-3.136-4.864c-.855-1.091-1.772-2.121-2.714-3.122l1.452-1.415Q1032.13,1727.24,1036.71,1722.161Z" transform="translate(-1006.87 -1710.09)" fill="#fff" fill-rule="evenodd"/>
</svg>
