<svg xmlns="http://www.w3.org/2000/svg" width="13.539" height="13.539" viewBox="0 0 13.539 13.539">
  <g id="chat" transform="translate(0.5 0.5)">
    <path id="Path_48" data-name="Path 48" d="M17.663,11.592a.73.73,0,0,1,.1-.368,1.015,1.015,0,0,1,.063-.093,4.884,4.884,0,0,0,.832-2.722,5.128,5.128,0,0,0-5.236-5.034A5.2,5.2,0,0,0,8.289,7.381a4.844,4.844,0,0,0-.112,1.031,5.113,5.113,0,0,0,5.154,5.1,6.208,6.208,0,0,0,1.423-.232c.341-.093.678-.217.766-.25a.8.8,0,0,1,.28-.051.784.784,0,0,1,.3.06l1.709.606a.408.408,0,0,0,.118.03.24.24,0,0,0,.241-.241.387.387,0,0,0-.015-.081Z" transform="translate(-6.119 -3.375)" fill="none" stroke="#fff" stroke-width="1"/>
    <path id="Path_49" data-name="Path 49" d="M11.529,19.2c-.109.03-.247.063-.4.1a5.563,5.563,0,0,1-1.025.136,5.113,5.113,0,0,1-5.154-5.1A5.7,5.7,0,0,1,5,13.692c.018-.13.039-.259.069-.386s.066-.271.105-.4l-.241.214a4.486,4.486,0,0,0-1.555,3.373,4.436,4.436,0,0,0,.748,2.472c.069.106.109.187.1.241s-.359,1.869-.359,1.869a.242.242,0,0,0,.081.232.246.246,0,0,0,.154.054.216.216,0,0,0,.087-.018l1.691-.666a.471.471,0,0,1,.172-.033.476.476,0,0,1,.19.039,5.073,5.073,0,0,0,1.83.362,4.734,4.734,0,0,0,3.62-1.661s.1-.133.208-.289C11.782,19.13,11.655,19.169,11.529,19.2Z" transform="translate(-3.375 -8.818)" fill="none" stroke="#fff" stroke-width="1"/>
  </g>
</svg>
