<svg xmlns="http://www.w3.org/2000/svg" width="21.146" height="21.641" viewBox="0 0 21.146 21.641">
  <path id="setting" d="M21.116,14.332a7.116,7.116,0,0,0,0-2.023l2.178-1.7a.521.521,0,0,0,.124-.661L21.353,6.375a.519.519,0,0,0-.63-.227L18.154,7.18a7.54,7.54,0,0,0-1.744-1.011l-.392-2.735A.5.5,0,0,0,15.511,3H11.383a.5.5,0,0,0-.506.433l-.392,2.735A7.929,7.929,0,0,0,8.741,7.18L6.171,6.148a.5.5,0,0,0-.63.227L3.478,9.946a.509.509,0,0,0,.124.661l2.178,1.7a8.185,8.185,0,0,0-.072,1.011,8.185,8.185,0,0,0,.072,1.011L3.6,16.035a.521.521,0,0,0-.124.661l2.064,3.571a.519.519,0,0,0,.63.227l2.57-1.032a7.54,7.54,0,0,0,1.744,1.011l.392,2.735a.5.5,0,0,0,.506.433h4.128a.5.5,0,0,0,.506-.433l.392-2.735a7.929,7.929,0,0,0,1.744-1.011l2.57,1.032a.5.5,0,0,0,.63-.227L23.417,16.7a.521.521,0,0,0-.124-.661l-2.178-1.7Zm-7.668,2.6a3.612,3.612,0,1,1,3.612-3.612A3.616,3.616,0,0,1,13.447,16.933Z" transform="translate(-2.87 -2.5)" fill="none" stroke="#fff" stroke-width="1"/>
</svg>
