<svg xmlns="http://www.w3.org/2000/svg" width="20.078" height="21.661" viewBox="0 0 20.078 21.661">
  <g id="logout" transform="translate(-17.219)">
    <g id="Group_12" data-name="Group 12" transform="translate(17.219)">
      <g id="Group_11" data-name="Group 11">
        <path id="Path_19" data-name="Path 19" d="M26.891,20.42h-5.65a2.785,2.785,0,0,1-2.781-2.781V4.022a2.785,2.785,0,0,1,2.781-2.781h5.742a.621.621,0,1,0,0-1.241H21.241a4.027,4.027,0,0,0-4.022,4.022V17.639a4.027,4.027,0,0,0,4.022,4.022h5.65a.621.621,0,1,0,0-1.241Z" transform="translate(-17.219)" fill="#fff"/>
        <path id="Path_20" data-name="Path 20" d="M135.666,140.452l-3.944-3.944a.621.621,0,0,0-.878.878l2.887,2.887H121.14a.621.621,0,0,0,0,1.241h12.591l-2.887,2.887a.623.623,0,0,0,.437,1.062.605.605,0,0,0,.437-.184l3.944-3.944A.62.62,0,0,0,135.666,140.452Z" transform="translate(-115.77 -130.058)" fill="#fff"/>
      </g>
    </g>
  </g>
</svg>
