<svg id="gender" xmlns="http://www.w3.org/2000/svg" width="20.069" height="20.069" viewBox="0 0 20.069 20.069">
  <g id="Group_20" data-name="Group 20">
    <path id="Path_27" data-name="Path 27" d="M10.622,5.331A5.311,5.311,0,1,0,4.743,10.59v3.56H2.979a.588.588,0,0,0,0,1.176H4.743V17.09a.588.588,0,1,0,1.176,0V15.326H7.683a.588.588,0,1,0,0-1.176H5.919V10.589a5.3,5.3,0,0,0,4.7-5.259Zm-9.446,0A4.135,4.135,0,1,1,5.331,9.446,4.16,4.16,0,0,1,1.176,5.331Z" fill="#fff"/>
    <path id="Path_28" data-name="Path 28" d="M246.88,68.087v-5.08l1.348,1.348a.588.588,0,1,0,.831-.831l-2.352-2.352a.588.588,0,0,0-.831,0l-2.352,2.352a.588.588,0,0,0,.831.831l1.348-1.348v5.081a5.312,5.312,0,0,0,.588,10.589,5.31,5.31,0,0,0,.588-10.59Zm-.588,9.414a4.135,4.135,0,1,1,4.155-4.155A4.14,4.14,0,0,1,246.292,77.5Z" transform="translate(-231.554 -58.609)" fill="#fff"/>
  </g>
</svg>
