<svg xmlns="http://www.w3.org/2000/svg" width="20.069" height="24.082" viewBox="0 0 20.069 24.082">
  <g id="bell" transform="translate(-2)">
    <g id="Group_65" data-name="Group 65" transform="translate(10.027 0)">
      <path id="Path_45" data-name="Path 45" d="M13.512,4.194a.5.5,0,0,1-.5-.5V2.007a1,1,0,0,0-2.007,0V3.693a.5.5,0,1,1-1,0V2.007a2.007,2.007,0,1,1,4.014,0V3.693A.5.5,0,0,1,13.512,4.194Z" transform="translate(-10 0)" fill="#fff"/>
    </g>
    <g id="Group_66" data-name="Group 66" transform="translate(8.522 20.069)">
      <path id="Path_46" data-name="Path 46" d="M12.012,24.014A3.516,3.516,0,0,1,8.5,20.5a.5.5,0,0,1,1,0,2.509,2.509,0,0,0,5.017,0,.5.5,0,0,1,1,0A3.516,3.516,0,0,1,12.012,24.014Z" transform="translate(-8.5 -20)" fill="#fff"/>
    </g>
    <g id="Group_67" data-name="Group 67" transform="translate(2 3.01)">
      <path id="Path_47" data-name="Path 47" d="M20.563,21.062H3.505a1.505,1.505,0,0,1-.978-2.649,6.976,6.976,0,0,0,2.483-5.34V10.024a7.024,7.024,0,1,1,14.048,0v3.048a6.968,6.968,0,0,0,2.475,5.333,1.505,1.505,0,0,1-.97,2.656ZM12.034,4a6.027,6.027,0,0,0-6.021,6.021v3.048a7.972,7.972,0,0,1-2.831,6.1.5.5,0,0,0,.322.886H20.563a.5.5,0,0,0,.326-.883,7.978,7.978,0,0,1-2.835-6.1V10.024A6.027,6.027,0,0,0,12.034,4Z" transform="translate(-2 -3)" fill="#fff"/>
    </g>
  </g>
</svg>
