<svg xmlns="http://www.w3.org/2000/svg" width="40.416" height="21.324" viewBox="0 0 40.416 21.324">
  <path id="aquaries" d="M683.52,2123.662c.575-.255,1.152-.507,1.727-.761l1.253,1.986c.559.886,1.147,1.751,1.719,2.631a1.18,1.18,0,0,0,1.5.419l.079-.037c1.675-.8,3.333-1.624,4.981-2.473q1.964-.991,3.907-2.023l1.138,1.591c.615.845,1.25,1.677,1.874,2.52l.036.047a1.19,1.19,0,0,0,1.534.336c1.625-.893,3.23-1.825,4.828-2.768q1.205-.695,2.391-1.429l1.943-1.195c1.218,1.456,2.444,2.906,3.742,4.3-.968-1.879-2.022-3.7-3.08-5.513a.582.582,0,0,0-.736-.241l-.091.04-2.556,1.111c-.854.365-1.7.748-2.54,1.14q-2.029.926-4.036,1.893c-.386-.587-.769-1.175-1.163-1.755l-1.778-2.59a1.329,1.329,0,0,0-1.686-.436l-.034.017c-1.658.829-3.3,1.7-4.929,2.577-1.334.7-2.655,1.429-3.971,2.168-.405-.547-.807-1.094-1.225-1.631l-1.93-2.48-.053-.07a.927.927,0,0,0-1.191-.235c-.805.463-1.59.96-2.385,1.443s-1.587.963-2.369,1.469c-1.573.993-3.131,2.017-4.66,3.094,1.759-.634,3.49-1.325,5.2-2.047C681.819,2124.407,682.669,2124.034,683.52,2123.662Zm28.833,10.976-.091.041-2.556,1.111c-.854.365-1.7.748-2.54,1.141q-2.029.926-4.036,1.893c-.385-.587-.769-1.174-1.163-1.755l-1.778-2.591a1.329,1.329,0,0,0-1.686-.436l-.034.017c-1.658.829-3.3,1.7-4.929,2.577-1.334.7-2.655,1.433-3.971,2.168-.405-.544-.807-1.094-1.225-1.627l-1.93-2.483-.053-.071a.926.926,0,0,0-1.191-.234c-.805.462-1.59.963-2.385,1.442s-1.587.966-2.369,1.47c-1.573.993-3.131,2.017-4.66,3.094,1.758-.634,3.49-1.325,5.2-2.046.862-.353,1.711-.725,2.563-1.1.575-.255,1.152-.507,1.727-.762l1.253,1.987c.559.886,1.147,1.752,1.719,2.631a1.185,1.185,0,0,0,1.5.423l.079-.04c1.675-.8,3.333-1.624,4.981-2.473q1.964-.991,3.907-2.023l1.138,1.59c.615.846,1.25,1.681,1.874,2.52l.036.05a1.2,1.2,0,0,0,1.534.336c1.625-.9,3.23-1.829,4.828-2.772q1.205-.695,2.391-1.43l1.943-1.191c1.218,1.453,2.444,2.9,3.742,4.3-.968-1.879-2.022-3.7-3.08-5.513A.586.586,0,0,0,712.352,2134.638Z" transform="translate(-675.753 -2120.315)" fill="#fff" fill-rule="evenodd"/>
</svg>
