<svg xmlns="http://www.w3.org/2000/svg" width="21.833" height="38.605" viewBox="0 0 21.833 38.605">
  <path id="dollar" d="M21.233,21.443C16.365,20.178,14.8,18.87,14.8,16.832c0-2.338,2.166-3.968,5.791-3.968,3.818,0,5.233,1.823,5.362,4.5h4.74A8.549,8.549,0,0,0,23.807,9.2V4.5H17.373V9.133c-4.161.9-7.507,3.6-7.507,7.743,0,4.954,4.1,7.421,10.08,8.858,5.362,1.287,6.434,3.174,6.434,5.169,0,1.48-1.051,3.839-5.791,3.839-4.418,0-6.155-1.973-6.391-4.5H9.48c.257,4.7,3.775,7.335,7.893,8.214v4.654h6.434V38.494c4.182-.794,7.507-3.217,7.507-7.614C31.313,24.789,26.1,22.709,21.233,21.443Z" transform="translate(-9.48 -4.5)" fill="#fff"/>
</svg>
