<svg xmlns="http://www.w3.org/2000/svg" width="54.382" height="50.359" viewBox="0 0 54.382 50.359">
  <g id="heart" transform="translate(-2.571 -3.856)" fill="none">
    <path d="M42.677,3.856c-5.716,0-10.635,4.65-12.914,9.506-2.28-4.856-7.2-9.506-12.917-9.506A14.282,14.282,0,0,0,2.571,18.133c0,16.03,16.171,20.234,27.192,36.082,10.417-15.75,27.19-20.563,27.19-36.082A14.282,14.282,0,0,0,42.677,3.856Z" stroke="none"/>
    <path d="M 16.84637832641602 5.856063842773438 C 10.07754898071289 5.856063842773438 4.570697784423828 11.36348342895508 4.570697784423828 18.13302612304688 C 4.570697784423828 22.21996307373047 5.716880798339844 25.70573425292969 8.177780151367188 29.10293579101562 C 10.49546813964844 32.30242538452148 13.81914901733398 35.2142333984375 17.33797836303711 38.29701232910156 C 21.31514358520508 41.78134155273438 25.75603485107422 45.67177581787109 29.7269172668457 50.79085922241211 C 33.64211654663086 45.54162216186523 38.19184494018555 41.50831604003906 42.26573181152344 37.89686584472656 C 45.74782943725586 34.81003570556641 49.03680801391602 31.89439582824707 51.3518180847168 28.72629547119141 C 53.80844879150391 25.36437606811523 54.95264053344727 21.99828338623047 54.95264053344727 18.13302612304688 C 54.95264053344727 11.36348342895508 49.4456901550293 5.856063842773438 42.67673873901367 5.856063842773438 C 39.90374755859375 5.856063842773438 37.61013031005859 7.214706420898438 36.17430877685547 8.354465484619141 C 34.27069091796875 9.865566253662109 32.63676834106445 11.94575500488281 31.57354927062988 14.21181488037109 L 29.76362991333008 18.06930541992188 L 27.95257949829102 14.21234512329102 C 26.88842010498047 11.94602584838867 25.25381088256836 9.865703582763672 23.34984970092773 8.3546142578125 C 21.91368865966797 7.214786529541016 19.61959838867188 5.856063842773438 16.84637832641602 5.856063842773438 M 16.84637832641602 3.856063842773438 C 22.56274795532227 3.856063842773438 27.48262023925781 8.505935668945312 29.762939453125 13.36228561401367 C 32.04156875610352 8.505825042724609 36.96080017089844 3.856063842773438 42.67673873901367 3.856063842773438 C 50.55691909790039 3.856063842773438 56.95264053344727 10.25231552124023 56.95264053344727 18.13302612304688 C 56.95264053344727 33.65163421630859 40.18006134033203 38.46475219726562 29.76283836364746 54.21512603759766 C 18.74188995361328 38.36660766601562 2.570697784423828 34.16326522827148 2.570697784423828 18.13302612304688 C 2.570697784423828 10.25231552124023 8.966259002685547 3.856063842773438 16.84637832641602 3.856063842773438 Z" stroke="none" fill="#fff"/>
  </g>
</svg>
