<svg xmlns="http://www.w3.org/2000/svg" width="66" height="66" viewBox="0 0 66 66">
  <g id="_mic_on" data-name=" mic_on" transform="translate(-79 -791)">
    <circle id="Ellipse_14" data-name="Ellipse 14" cx="33" cy="33" r="33" transform="translate(79 791)" fill="#fff"/>
    <g id="Group_107" data-name="Group 107" transform="translate(103.782 811.753)">
      <path id="Path_895" data-name="Path 895" d="M9.625,16.754a5.8,5.8,0,0,1-.251-1.683h-1.8A7.539,7.539,0,0,0,8.3,18.3Z" transform="translate(-6.952 -3.284)" fill="#24236e"/>
      <path id="Path_896" data-name="Path 896" d="M15.1,19.71a5.751,5.751,0,0,1-3.7-1.353l1.008-1.172a4.181,4.181,0,0,0,2.689.979,4.255,4.255,0,0,0,4.251-4.252V9.083l3.968-4.631L21.957,3.278,6.884,20.862l1.369,1.172,1.982-2.307A7.553,7.553,0,0,0,14.2,21.454v4.116H11.755v1.8h6.7v-1.8H16.006V21.454a7.609,7.609,0,0,0,6.7-7.542H20.9a5.8,5.8,0,0,1-5.8,5.8Z" transform="translate(-6.885 -2.125)" fill="#24236e"/>
      <path id="Path_897" data-name="Path 897" d="M19.4,4.494a4.244,4.244,0,0,0-8.111,1.757v7.536c0,.053.014.1.015.153Z" transform="translate(-7.317 -2)" fill="#24236e"/>
    </g>
  </g>
</svg>
