<svg xmlns="http://www.w3.org/2000/svg" width="17.195" height="17.195" viewBox="0 0 17.195 17.195">
  <path id="check" d="M15.352,19.445H1.842A1.842,1.842,0,0,1,0,17.6V4.092A1.842,1.842,0,0,1,1.842,2.25h13.51a1.842,1.842,0,0,1,1.842,1.842V17.6A1.842,1.842,0,0,1,15.352,19.445ZM7.5,15.681l7.062-7.062a.614.614,0,0,0,0-.868l-.868-.868a.614.614,0,0,0-.868,0L7.062,12.641,4.373,9.952a.614.614,0,0,0-.868,0l-.868.868a.614.614,0,0,0,0,.868l3.992,3.992a.614.614,0,0,0,.868,0Z" transform="translate(0 -2.25)" fill="#fff"/>
</svg>
